<mxfile host="app.diagrams.net" modified="2023-05-25T02:41:02.011Z" agent="Mozilla/5.0 (Macintosh; Intel Mac OS X 10_15_7) AppleWebKit/537.36 (KHTML, like Gecko) Chrome/113.0.0.0 Safari/537.36" version="21.3.3" etag="DIe-AtQ-3hSUS5E4jWnk" type="github">
  <diagram name="第 1 页" id="x3-1WD0VrlCuzrHKrEJD">
    <mxGraphModel>
      <root>
        <mxCell id="0" />
        <mxCell id="1" parent="0" />
      </root>
    </mxGraphModel>
  </diagram>
</mxfile>
